<svg id="Layer_1" data-name="Layer 1" xmlns="http://www.w3.org/2000/svg" viewBox="0 0 242.72 84.15"><path d="M8.39,85.58h-2l-.32-.8H3.82l-.32.8h-2l3.41-6.94H5ZM4.34,83.46H5.58L5,81.87Z" transform="translate(-1.53 -1.54)" style="fill:#fff"/><path d="M17.3,80.85h1.25v1.42H17.3v1.39a.48.48,0,0,0,.53.49,1.28,1.28,0,0,0,.56-.13l.41,1.33a2.09,2.09,0,0,1-1.14.32,1.86,1.86,0,0,1-2.06-2v-1.4h-.8V80.85h.8V79.3h1.7Z" transform="translate(-1.53 -1.54)" style="fill:#fff"/><path d="M29.07,81.34l.09-.49h1.52v4.73H29.16l-.09-.49a1.49,1.49,0,0,1-1.29.58,2.5,2.5,0,0,1,0-4.92A1.47,1.47,0,0,1,29.07,81.34Zm-1.62,1.87c0,.63.31,1,.78,1a.84.84,0,0,0,.75-.43v-1.1a.84.84,0,0,0-.75-.43C27.76,82.23,27.45,82.58,27.45,83.21Z" transform="translate(-1.53 -1.54)" style="fill:#fff"/><path d="M40.5,80.85h1.25v1.42H40.5v1.39a.48.48,0,0,0,.53.49,1.28,1.28,0,0,0,.56-.13L42,85.35a2.09,2.09,0,0,1-1.14.32,1.86,1.86,0,0,1-2.06-2v-1.4H38V80.85h.8V79.3h1.7Z" transform="translate(-1.53 -1.54)" style="fill:#fff"/><path d="M53.75,85.58H52.23l-.08-.48a1.43,1.43,0,0,1-1.27.57c-1.14,0-1.72-.83-1.72-2.14V80.85h1.71v2.58c0,.38.17.64.52.64a.75.75,0,0,0,.66-.4V80.85h1.7ZM51.26,79.5a.76.76,0,1,1-.76-.76A.73.73,0,0,1,51.26,79.5Zm1.92,0a.76.76,0,1,1-.76-.76A.73.73,0,0,1,53.18,79.5Z" transform="translate(-1.53 -1.54)" style="fill:#fff"/><path d="M64.49,82.44h-.14a1.37,1.37,0,0,0-1.1.5v2.64H61.54V80.85h1.51l.11.6a1.51,1.51,0,0,1,1.33-.7Z" transform="translate(-1.53 -1.54)" style="fill:#fff"/><path d="M73.57,82.83l1.24-2h2L75.41,82.7l1.51,2.88H75l-.74-1.39L73.2,85.58H71.86v-7h1.71Z" transform="translate(-1.53 -1.54)" style="fill:#fff"/><path d="M96.59,82l2.5,3.55H97l-1.37-2-1.33,2H92.94V78.76H94.7V82l1.87-3.27h2.08Z" transform="translate(-1.53 -1.54)" style="fill:#fff"/><path d="M110.5,85.58H109l-.08-.48a1.43,1.43,0,0,1-1.27.57c-1.14,0-1.72-.83-1.72-2.14V80.85h1.71v2.58c0,.38.16.64.52.64a.77.77,0,0,0,.66-.4V80.85h1.7ZM108,79.5a.76.76,0,1,1-.76-.76A.73.73,0,0,1,108,79.5Zm1.92,0a.76.76,0,1,1-.76-.76A.73.73,0,0,1,109.93,79.5Z" transform="translate(-1.53 -1.54)" style="fill:#fff"/><path d="M120,85.58h-1.71v-7H120Z" transform="translate(-1.53 -1.54)" style="fill:#fff"/><path d="M129.82,80.85h1.25v1.42h-1.25v1.39a.48.48,0,0,0,.53.49,1.23,1.23,0,0,0,.55-.13l.41,1.33a2.08,2.08,0,0,1-1.13.32,1.87,1.87,0,0,1-2.07-2v-1.4h-.8V80.85h.8V79.3h1.71Z" transform="translate(-1.53 -1.54)" style="fill:#fff"/><path d="M143.07,85.58h-1.52l-.09-.48a1.43,1.43,0,0,1-1.27.57c-1.14,0-1.71-.83-1.71-2.14V80.85h1.7v2.58c0,.38.17.64.52.64a.74.74,0,0,0,.66-.4V80.85h1.71Zm-2.5-6.08a.76.76,0,1,1-1.52,0,.76.76,0,0,1,1.52,0Zm1.92,0a.76.76,0,1,1-1.52,0,.76.76,0,1,1,1.52,0Z" transform="translate(-1.53 -1.54)" style="fill:#fff"/><path d="M153.81,82.44h-.14a1.39,1.39,0,0,0-1.11.5v2.64h-1.7V80.85h1.51l.1.6a1.51,1.51,0,0,1,1.34-.7Z" transform="translate(-1.53 -1.54)" style="fill:#fff"/><path d="M177.05,85.58h-1.76V83.39l-1.74,2.31h-.08l-1.75-2.32v2.2H170V78.64h0l3.51,4.43,3.5-4.43h0Z" transform="translate(-1.53 -1.54)" style="fill:#fff"/><path d="M189.29,83.14v.48h-3c0,.42.29.67.81.67a1.11,1.11,0,0,0,.86-.39l1.16.92a2.55,2.55,0,0,1-2,.85,2.46,2.46,0,1,1,0-4.92A2.16,2.16,0,0,1,189.29,83.14Zm-3-.48h1.31A.65.65,0,0,0,187,82,.68.68,0,0,0,186.3,82.66Z" transform="translate(-1.53 -1.54)" style="fill:#fff"/><path d="M199.76,82.44h-.14a1.37,1.37,0,0,0-1.1.5v2.64h-1.71V80.85h1.51l.11.6a1.51,1.51,0,0,1,1.33-.7Z" transform="translate(-1.53 -1.54)" style="fill:#fff"/><path d="M208.84,82.83l1.24-2h2l-1.44,1.85,1.51,2.88h-1.92l-.74-1.39-1.06,1.39h-1.34v-7h1.71Z" transform="translate(-1.53 -1.54)" style="fill:#fff"/><path d="M223.63,83.14v.48h-3c0,.42.3.67.82.67a1.11,1.11,0,0,0,.86-.39l1.16.92a2.55,2.55,0,0,1-2.06.85,2.46,2.46,0,1,1,0-4.92A2.17,2.17,0,0,1,223.63,83.14Zm-3-.48H222a.65.65,0,0,0-.64-.7A.68.68,0,0,0,220.63,82.66Z" transform="translate(-1.53 -1.54)" style="fill:#fff"/><path d="M235,80.88l-1.68,3.27H235v1.43h-4.19v0l1.68-3.27H230.9V80.85H235Z" transform="translate(-1.53 -1.54)" style="fill:#fff"/><path d="M244.25,79.37a1,1,0,1,1-.95-1A.92.92,0,0,1,244.25,79.37Zm-.1,6.21h-1.71V80.85h1.71Z" transform="translate(-1.53 -1.54)" style="fill:#fff"/><path d="M236.38,25.41,220.63,44,205.05,64.61h-.66L188.73,43.89V63.53H173v-62h.33l31.41,39.62L236.05,1.54h.33Z" transform="translate(-1.53 -1.54)" style="fill:#fff"/><polygon points="34.48 0 34.14 0 26.32 15.9 48.07 61.99 64.97 61.99 34.48 0" style="fill:#fff"/><path d="M124.76,31.87l22.29,31.66h-18.9L115.89,45.88,104,63.53H92.1V31.87h15.75L124.59,2.62h18.56Z" transform="translate(-1.53 -1.54)" style="fill:#fff"/><path d="M100,10.49a7.87,7.87,0,0,0,7.87-7.87H92.1A7.87,7.87,0,0,0,100,10.49Z" transform="translate(-1.53 -1.54)" style="fill:#b73027"/><path d="M236.38,56.14A7.87,7.87,0,0,0,228.51,64h15.74A7.87,7.87,0,0,0,236.38,56.14Z" transform="translate(-1.53 -1.54)" style="fill:#b73027"/><path d="M9.4,56.14A7.87,7.87,0,0,0,1.53,64H17.27A7.87,7.87,0,0,0,9.4,56.14Z" transform="translate(-1.53 -1.54)" style="fill:#b73027"/></svg>