<svg id="Layer_1" data-name="Layer 1" xmlns="http://www.w3.org/2000/svg" viewBox="0 0 624 419.97"><defs><style>.cls-1{fill:#fff;}</style></defs><path class="cls-1" d="M439.87,42c1.95-.52,3.93-1,6-1.43a102.13,102.13,0,0,1,21.93-2.19c13.62.24,30.53,1.41,29.38,1.53C485.49,41.07,472.44,46,464,52.49c-8.76,6.76-16,16.06-22.9,26.12-4.68,6.81-18.92,18.1-34.8,23.07-19.16,6-40.21,3.83-43.06-12.85-.76-4.4.75-8.58.2-10.1a.62.62,0,0,1,0,.13c-.54-1.46-4.93-2.89-7.95-6.41-11-12.78.69-30.66,17.39-41.9,13.84-9.31,31.48-13.33,39.66-12.7,12.08.93,23.76,1.16,34.47-1.44C457.32,13.92,466.68,8.42,475,0c.82-.82-6.31,11.55-14.74,22.38a104.92,104.92,0,0,1-15.54,15.82q-2.42,1.93-4.81,3.73M363.48,78.61c13.26,9.77,24.82,1.62,35.53-8.91,4.91-4.83,9.22-10.63,14.37-15-6.61,1.3-13.8,1-20.63,1.8-14.78,1.74-28.3,5.64-29.27,22.1"/><path class="cls-1" d="M186.77.14A136.32,136.32,0,0,1,206.27,2,93.63,93.63,0,0,1,237.59,13.2c9.42,5.31,21.88,14.4,36.65,20.05,7.82,3,16.09,6.56,24.64,9,8,2.29,16.39,3.41,23,7.09,4.07,2.25,9,4.33,12.39,7a59.69,59.69,0,0,1,22.1,34.88C339.79,72.75,324.79,66,303,56.3c-.77-.35-12.12-4.6-12.12-5.75,2.86,4.05,8.35,6.27,12.12,8.59C314.65,66.34,323.32,70,335.29,80c4.06,3.4,8.37,6.51,10.9,9.26,5.86,6.36,10.89,13.08,13.56,20.49,2.29,6.33,2.54,13.17,3.75,20.72.74,4.6,1.47,12.88,2,17.08.51,4,4.16,11.12,4.16,13.8-8.73-10.44-21.91-16.67-35.05-10.67.71-5.9-.36-11.57-.4-16.7-.18-22.39-5.1-38.26-16.72-49.69-10.58-10.41-27.16-16.89-42.06-26C260.15,49,246,35.58,229.44,22.59,216.07,12.1,201.49,3.25,186.77.14"/><path class="cls-1" d="M321.05,102.81c9.18,10.86,6.63,35.81,6.63,50.7a19.45,19.45,0,0,1-9.53-9.56c-3.06-7.25-3.61-17.09-3-25.4.42-5.69,1.08-10.67,3-13.61a13.07,13.07,0,0,1,1.22-1c.11-.11,1.44-.9,1.66-1.12"/><path class="cls-1" d="M473.68,141.51c5.29,4.26,8.54,6.34,3.23,12.82-1.68,2-4.59,2.47-8,2.37-11-.33-9.68-6.1-6.92-10.88,1.39-2.39,2.53-5.63,4.56-6.6s4.64.33,7.08,2.29"/><path class="cls-1" d="M32.57,365.41l-2.19,6a16,16,0,0,0-12.68-6.49c-11,0-17.7,8.41-17.7,18.66S7.21,402.2,17.34,402.2a14,14,0,0,0,12-6.71v7.23c0,7.22-4.52,11.5-11.88,11.5a12.48,12.48,0,0,1-10.56-5.68L2,411.34A17.6,17.6,0,0,0,17.41,420c10.71,0,17.92-6.56,17.92-17.33V365.41Zm-3.28,18.14c0,7.07-4.66,12.9-11.51,12.9-7.14,0-11.66-5.75-11.66-12.9s4.44-12.91,11.58-12.91c6.71,0,11.37,5.46,11.59,12.32Z"/><path class="cls-1" d="M73.8,364.89C63,364.89,56,373.3,56,383.55S63.3,402.2,73.8,402.2s17.77-8.41,17.77-18.65S84.36,364.89,73.8,364.89Zm0,31.49c-7.07,0-11.59-5.75-11.59-12.83s4.52-12.83,11.59-12.83,11.65,5.75,11.65,12.83S80.86,396.38,73.8,396.38Z"/><path class="cls-1" d="M108.32,365.63H115l1.24-10.91,4.52.07v10.84h10.56v5.16H120.71v19.1c0,4.27,2.18,6.48,5.24,6.48h5.32l.22,5.09a30.74,30.74,0,0,1-5.54.45c-7.57,0-11.22-5.31-11.22-12v-19.1h-6.41Z"/><path class="cls-1" d="M177,365.56h6v35.9h-3.79l-1.31-5.31a13.34,13.34,0,0,1-11.22,6.05c-10,0-15.15-6.56-15.15-16.66v-20h6v20c0,7.08,2.84,10.91,9.62,10.91,5.83,0,9.91-3.91,9.84-10.77Z"/><path class="cls-1" d="M211.84,401.46h-6.05V365.34h2.77l2.18,5.75a12.38,12.38,0,0,1,10.78-6.2,15.68,15.68,0,0,1,9.84,3.54l-3.13,4.65a11.28,11.28,0,0,0-6.92-2.44,9.85,9.85,0,0,0-9.47,8.56Z"/><polygon class="cls-1" points="263.49 383.1 281.33 401.46 273.32 401.46 258.38 386.05 255.11 386.05 255.11 401.46 249.06 401.46 249.06 345.8 255.11 345.8 255.11 380.67 258.17 380.67 271.94 365.63 279.66 365.63 263.49 383.1"/><rect class="cls-1" x="299.91" y="365.63" width="6.05" height="35.83"/><path class="cls-1" d="M303,348.89a4.46,4.46,0,1,1-4.38,4.5,4.43,4.43,0,0,1,4.38-4.5"/><path class="cls-1" d="M341.28,410.83c-2.33,5.9-6.48,9-12.67,9a24,24,0,0,1-3.43-.29l.37-5h3c3.57,0,5.69-1.47,7-4.64l3.42-8.48L324.6,365.63H331L342,394l11-28.39h6.41Z"/><path class="cls-1" d="M408.45,382.66c0-9.44-6.41-17.77-16.9-17.77-10.79,0-17.27,8.41-17.27,18.66,0,10.76,7.21,18.65,18.29,18.65a17.86,17.86,0,0,0,15.15-7.67l-5-2.65a11.86,11.86,0,0,1-10.12,4.94c-7.14,0-11.59-4.72-12-11.21H408.3A22.1,22.1,0,0,0,408.45,382.66Zm-6.2-2.06H380.69c.51-5.83,4.74-10.32,10.93-10.32a10.6,10.6,0,0,1,10.63,10.25Z"/><path class="cls-1" d="M435.54,392.91a4.68,4.68,0,1,1-4.59,4.72,4.63,4.63,0,0,1,4.59-4.72"/><path class="cls-1" d="M479.76,364.89a17.56,17.56,0,0,1,14.5,7.38l-4.66,3.46a12.53,12.53,0,0,0-9.84-5c-7.14,0-11.58,5.75-11.58,12.83s4.73,12.83,11.94,12.83a13.35,13.35,0,0,0,9.69-3.91l4,4a18.94,18.94,0,0,1-13.7,5.68c-10.56,0-18.06-8.41-18.06-18.65s6.92-18.66,17.7-18.66"/><path class="cls-1" d="M529.88,364.89c-10.78,0-17.78,8.41-17.78,18.66s7.29,18.65,17.78,18.65,17.78-8.41,17.78-18.65S540.44,364.89,529.88,364.89Zm0,31.49c-7.07,0-11.59-5.75-11.59-12.83s4.52-12.83,11.59-12.83,11.66,5.75,11.66,12.83S536.94,396.38,529.88,396.38Z"/><path class="cls-1" d="M599.45,401.46h-6V381c0-6.12-3.2-10.33-9.25-10.33a10.3,10.3,0,0,0-9.76,7.08v23.74h-6.05V365.34h2.77l2.4,5.53a13.32,13.32,0,0,1,10.93-6A14.47,14.47,0,0,1,597,371.68a15,15,0,0,1,12.39-6.79c8.37,0,14.64,5.9,14.64,15.63v20.94h-6V381c0-6-2.77-10.4-9-10.4a10.23,10.23,0,0,0-9.54,7.08Z"/><path class="cls-1" d="M220.88,161.17a23.46,23.46,0,0,1,8.51-9.66c2.8-1.8,6.31-2.76,9.12-3.74,2.11-.73,3.64-1.78,5.1-1.5,1.77.35,2.73,2.12,2.73,4.23,0,1.28-1,2.85-2,4.05-1.63,2-4.63,3.5-7.67,5.23-1.38.78-2.69,1.78-4,2.57-5.8,3.4-10.91,6.66-10.87,6.52-1.54-.24-1.71-2.21-1.71-3.64a8,8,0,0,1,.86-4.06"/><path class="cls-1" d="M247.68,176.74c.93,0,2.93-2.09,5.51-3.82,3.12-2.08,6.9-3.92,8.15-4.94,3.38-2.76,8.11-4,10.21-9.41.6-1.54-1.28-4.23-2.29-4.41-.33-.06-12.38,4-13.46,4.65-4.11,2.35-15.82,14.08-8.12,17.93"/><path class="cls-1" d="M40.17,179.16c-6.24,3.76-60.84,30.27-31.63,35.33,6.51,1.12,15.19.6,25-2.28,21.46-6.3,46.07-19.79,54.53-24.6,17.17-9.76,34.43-20.14,52.61-28.66a362,362,0,0,1,63.67-22.62c21.85-5.6,44.52-10.2,68.4-9.44,3.49.11,2.49,2,1.2,3.35,21.76-4.92-11.52-12.11-16.72-12.69-24.57-2.77-49.5-1.31-72.79,2.77-38,6.68-99.35,31.84-144.26,58.84"/><path class="cls-1" d="M127.36,261.07c-7.48-4.16.91-34.42,4.16-42.25a206.92,206.92,0,0,0,9.59-28.21c2.61-10.58,1.68-19.42-2.87-24.13-3.21-3.32,12.94-4.57,17.91-1.82,18.39,10.21,18,25.07,11.14,36.33-4.38,7.22-12.78,11.85-16,16.5-8.89,12.78-15.15,26.73-23.92,43.58"/><path class="cls-1" d="M184.34,172.35c16.15-15.23,30.56-3,31.18,12.39.18,4.37-1.62,9-3.58,13.22-.84,1.83-1.6,4.43-2.72,6.78-1.86,3.92-4.13,7.72-5.17,10.44,7.61,0,52.89-44.84,53.58-20.58l.57,20c.16,5.4,4.48,21.88-3.32,21.88-11.87,0-7.31-25.08-8.39-34.44,2.11,3.12-25.81,22-38.28,25.54a15.08,15.08,0,0,1-5.86.57,17.69,17.69,0,0,1-6.62-2.41c-4.67-2.49-6.16-6.79-3.36-12.67,3-6.27,6.22-14,8.86-20.88,4-10.48,6.43-17.64-2.85-16-3.23.57-14,.08-14-3.87"/><path class="cls-1" d="M274.5,185.51c6.09-.29,9.12,8.41,8.46,10.09,12-8.95,24.32-18.67,36.26-26.65,6.47-4.32,12.5-8.61,19.08-10.9,7.16-2.49,24.15,2.5,17.52,11.89-.76,1.07-.4,2.7-.93,4-.44,1.1-1.82,1.95-2,2.71-3.05,12.47-6.74,2.77-8.27,1.53s-4.7-.68-7.24-.5c-8,.57-20.24,8.16-27.52,12.62-8.81,5.38-13.29,10.91-19.76,13.65-2.45,1-6-1.18-6.87-.3-1.2,1.17-.86,2.93-1.08,4.8-.81,6.88-4,13.69-4.13,20.63-.07,4.37.12,7.32-2.31,7.13-3.69-.28-6.72-5.14-7.38-9.55-1.06-7.21,2.73-21.34,4.11-28.6.73-3.87,1.57-8.69,2.07-12.58"/><path class="cls-1" d="M385,132.15a7.47,7.47,0,0,1-2.67-.22c-3-1.13,4.26-4.26,5.91-3.13,11.5,7.9,7.9,21.2,3.92,32.12-1.81,5-4.31,9.23-4.43,12.65,7.95-1.31,17-7.49,25.5-11.3,3.35-1.49,7.05-2.53,9.79-3.46.49-.17,1.73-1.39,2.25-1.64,3.85-1.83,7.72,3.38,7.72,6.51,0,.34-.76,3.4-3.34,3.49-5.91.2-16,5.63-25.06,10.34-2.92,1.53-6.2,2.72-8.7,4.14s-4.32,2.43-5.33,2.85c-4.27,1.73-18.72,9.13-6.17,10.4,8.92.91,17.55,3.94,26.35,5.39,5.37.88,9.64.92,13.5,2.79,3.32,1.61,6.95,6.14,2.32,10.82-2.32,2.34-3.35,2.08-6.43,2.08-4.12,0-1.47-5.31-4.56-5.31-3.55.28-20.12-5.2-31.95-6.1-5.93-.44-10.78.8-12.35,5.17-1.48,4.13-3,7.93-3.77,12-.33,1.81-1.94,3.58-.92,5.64,0,0,3,.33,3.15,1,.57,2.48-2.58,5.85-4.31,5.09a13.56,13.56,0,0,1-7.83-10.08c-1.08-6.66,1.35-13.93-1.29-13.27-4.87,1.21-8.19,3.08-10.53,2.66-4.12-.73-8.71-9.57-6.74-13.51.93-1.84,3.05-4,6.73-6.35,3.45-2.25,8.24-3.41,12.54-5.45a27.6,27.6,0,0,0,8.7-6.51c2-2.2,4.51-6.91,6.68-13.05,1.68-4.78,2.83-10.63,5.28-15.52,2.78-5.57,7.45-13.9,6-20.34"/><path class="cls-1" d="M453.82,230.46a15.58,15.58,0,0,1-5-2.77c-1.49-1.51-3.42,1.13-4.57.66-6.45-2.64-10-5.94-11.2-10.51-.55-2,4-10.15,4.79-12,2.82-6.42,6.1-13.4,8.72-18.19,7.93-14.5,12.4-19.4,12.44-21.65,20,0-4.23,35.32-3.22,42.33,1.34,9.18,4.24,11.91,3.87,14.92-.23,1.8-.88,3.71-5.86,7.19"/><path class="cls-1" d="M494.64,160c1.91,3.07,1.14,9.58-.56,15.15-1.93,6.31-6.61,12.7-7.13,18.05-2.16,22.06,31.08-5.86,35-8.5,6.8-4.63,13.49-9.37,17.07-9.37,3.69,2.42,4.17,7.24,3.49,13.45C539.26,218.48,525,250,515,280.48c-2.3,7-8.1,22.65-10.83,36.79-1.53,7.93,1.21,16.67-2,20-4.64,4.91-14.28,1.38-22.18-15-1.73-3.57-2.9-11.79.45-21.79,3.57-10.66,11.93-23.39,18.73-36.79,9-17.79,20.49-35.44,27.7-49.93,7.37-14.81,9.29-26.9,8-27-3.47,3.07-10.72,10.55-19.64,16.57-10.63,7.17-26,15-36.09,2.82-3.47-4.18-4.91-9.8-4.85-15.18.13-12.24,9.17-19.1,15.16-25.09,2.17-2.17,4.62-3.6,5.22-5.85"/><path class="cls-1" d="M610.25,153.38c-10.83-5-26.75,6.09-41.14,19.75-11.48,10.91-22.32,23.14-21.89,33.27.14,3.38,2.28,6.76,5.12,9.42,2.55,2.4,6.55,5.63,11.35,6.25,13,1.67,27.35-7.49,35.77-15.22,6.11-5.6,13.75-11.28,16.78-17.39,1-2.05,0-4.61,0-6.77-7.47,4-29.88,19.11-42.28,25.55-7.71,4-11.88,5.07-9-4.25a7.62,7.62,0,0,1,5.39-5.28c7.42-2.38,16-8.74,25-14.62,7-4.57,14.59-8.49,19.74-12.32l6.12-4.55C630.79,160.1,612.75,154.54,610.25,153.38Zm-21.79,22.69c-.84.78-1.84,1.21-2.74,2-4.87,4.27-10.55,8-14.73,12.29.09-2.9,5.57-10.51,7.87-12.84,1.63-1.65,3-3.66,4.58-5.41a41.78,41.78,0,0,1,9.49-8c2.56-1.5,5.35-2.76,8.73-2.57C607.06,161.86,589.86,174.77,588.46,176.07Z"/></svg>