<?xml version="1.0" encoding="UTF-8"?>
<svg version="1.1" xmlns="http://www.w3.org/2000/svg" width="195" height="206">
<path d="M0 0 C0.89541504 0.00620361 1.79083008 0.01240723 2.71337891 0.01879883 C3.73310791 0.03076294 3.73310791 0.03076294 4.7734375 0.04296875 C5.17691406 1.28820313 5.58039062 2.5334375 5.99609375 3.81640625 C10.65147816 18.03737774 15.6107481 32.14106434 20.6484375 46.23046875 C20.98449005 47.17114197 21.3205426 48.11181519 21.66677856 49.08099365 C22.63574738 51.79150785 23.6064674 54.50138612 24.578125 57.2109375 C25.01678642 58.43620903 25.01678642 58.43620903 25.46430969 59.68623352 C26.83558242 63.50055494 28.23274779 67.29276643 29.7734375 71.04296875 C29.9796875 70.13546875 30.1859375 69.22796875 30.3984375 68.29296875 C33.31756349 58.26995573 37.73805219 50.12164429 46.85546875 44.8359375 C53.11601446 41.54886063 59.66676583 39.54008245 66.7734375 41.04296875 C69.12545562 43.79655094 70.23679893 45.82633175 71.7734375 49.04296875 C72.85204244 50.98011994 73.96015662 52.89894239 75.06787109 54.81958008 C78.33022065 60.49797102 81.44464903 66.2289403 84.3125 72.1171875 C86.50249047 76.50302403 88.79858132 80.83229326 91.0859375 85.16796875 C91.54347412 86.03526611 92.00101074 86.90256348 92.47241211 87.79614258 C93.57195551 89.87884142 94.67225311 91.96113719 95.7734375 94.04296875 C95.94359375 93.23472656 96.11375 92.42648438 96.2890625 91.59375 C97.92520108 84.3790751 99.10334447 79.5770806 105.3984375 75.23046875 C109.96295157 73.62443602 113.98583213 73.34120249 118.7734375 74.04296875 C123.19828628 76.25539314 125.96820407 78.99096491 128.7734375 83.04296875 C131.37823844 90.85737158 129.50978618 100.03015681 128.5234375 108.04296875 C128.41386719 109.05875 128.30429688 110.07453125 128.19140625 111.12109375 C126.73545233 123.07524176 122.97515334 132.00249181 113.7734375 140.04296875 C108.0056846 143.53494694 102.24458764 145.19390494 95.5234375 145.10546875 C94.63140625 145.09644531 93.739375 145.08742187 92.8203125 145.078125 C91.80710938 145.06072266 91.80710938 145.06072266 90.7734375 145.04296875 C90.33515625 144.14320313 89.896875 143.2434375 89.4453125 142.31640625 C81.20542584 125.54805931 72.14831816 109.2008513 62.7734375 93.04296875 C61.0548177 94.76158855 61.37902708 97.12541826 61.16015625 99.4765625 C61.04607422 100.60126953 60.93199219 101.72597656 60.81445312 102.88476562 C60.58231017 105.24595443 60.35809607 107.60793887 60.14257812 109.97070312 C58.97354189 121.23305771 56.31169606 130.26674543 47.7734375 138.04296875 C41.5705872 142.7580948 35.92831903 145.14960375 28.07421875 145.0859375 C27.08204346 145.07973389 26.08986816 145.07353027 25.06762695 145.06713867 C24.31054443 145.0591626 23.55346191 145.05118652 22.7734375 145.04296875 C14.44010417 121.70963542 6.10677083 98.37630208 -2.2265625 75.04296875 C-3.75485381 81.43400513 -4.76279113 87.699246 -5.4453125 94.23046875 C-5.60042297 95.64428833 -5.60042297 95.64428833 -5.75866699 97.08666992 C-6.08602934 100.07161146 -6.40710444 103.0571716 -6.7265625 106.04296875 C-7.14791514 109.9811179 -7.57588314 113.91846714 -8.0078125 117.85546875 C-8.10058472 118.74322998 -8.19335693 119.63099121 -8.28894043 120.5456543 C-10.15077774 137.4955131 -10.15077774 137.4955131 -16.2265625 143.04296875 C-20.5954968 145.78693194 -24.33663383 146.32876128 -29.4140625 145.54296875 C-35.15233722 144.09959903 -37.81924549 141.35827319 -40.86662292 136.34475708 C-42.44967827 132.50126745 -42.43172265 129.5033527 -42.0480957 125.46435547 C-41.99118466 124.72890944 -41.93427362 123.9934634 -41.87563801 123.23573112 C-41.6814402 120.83561951 -41.45793791 118.43976752 -41.2265625 116.04296875 C-41.15131222 115.24249367 -41.07606194 114.44201859 -40.99853134 113.61728668 C-40.41526153 107.50558754 -39.75603177 101.40304811 -39.08203125 95.30078125 C-38.9776153 94.34820309 -38.87319935 93.39562492 -38.76561928 92.41418076 C-38.2146791 87.38886001 -37.65876286 82.36412097 -37.09838867 77.33984375 C-36.52465155 72.1872372 -35.96783168 67.03294717 -35.41479015 61.87808418 C-34.98215544 57.87395781 -34.53720089 53.8712679 -34.08895302 49.86886215 C-33.8783206 47.96935566 -33.67219152 46.06934364 -33.47087669 44.16882706 C-31.99535905 30.29764132 -30.49492764 17.4156872 -20.2265625 7.04296875 C-14.12639761 2.13161552 -7.84930629 -0.0706566 0 0 Z " fill="#FEFEFE" transform="translate(53.2265625,12.95703125)"/>
<path d="M0 0 C1.16269409 0.26091431 1.16269409 0.26091431 2.34887695 0.52709961 C5.28524215 1.05088075 7.10785985 0.63443316 10 0 C12.10323534 -0.0659735 14.20835724 -0.08562245 16.3125 -0.0625 C17.91544922 -0.04896484 17.91544922 -0.04896484 19.55078125 -0.03515625 C20.35902344 -0.02355469 21.16726562 -0.01195312 22 0 C22.33 0.66 22.66 1.32 23 2 C23.33 1.34 23.66 0.68 24 0 C29.61 0 35.22 0 41 0 C41.66 1.65 42.32 3.3 43 5 C43.309375 4.360625 43.61875 3.72125 43.9375 3.0625 C45 1 45 1 46 0 C47.98 0 49.96 0 52 0 C52 7.59 52 15.18 52 23 C50.35 23 48.7 23 47 23 C46.505 21.515 46.505 21.515 46 20 C45.505 21.485 45.505 21.485 45 23 C44.01 23 43.02 23 42 23 C41.505 22.01 41.505 22.01 41 21 C39.00016466 21.79117904 39.00016466 21.79117904 37 23 C36.505 24.485 36.505 24.485 36 26 C30.25 25.25 30.25 25.25 28 23 C27.608125 23.495 27.21625 23.99 26.8125 24.5 C25 26 25 26 22.5 26.4375 C20 26 20 26 18.1875 24 C17.795625 23.34 17.40375 22.68 17 22 C16.21625 22.20625 15.4325 22.4125 14.625 22.625 C13.75875 22.74875 12.8925 22.8725 12 23 C11.34 22.34 10.68 21.68 10 21 C9.34 21.66 8.68 22.32 8 23 C5 23.25 5 23.25 2 23 C0 21 0 21 -0.22705078 18.84521484 C-0.21657715 17.97590332 -0.20610352 17.1065918 -0.1953125 16.2109375 C-0.18886719 15.26992187 -0.18242187 14.32890625 -0.17578125 13.359375 C-0.15902344 12.37453125 -0.14226563 11.3896875 -0.125 10.375 C-0.11597656 9.38242188 -0.10695313 8.38984375 -0.09765625 7.3671875 C-0.07404116 4.91121866 -0.04110799 2.45572832 0 0 Z M28 4 C28 5.98 28 7.96 28 10 C28.33 10 28.66 10 29 10 C29 8.02 29 6.04 29 4 C28.67 4 28.34 4 28 4 Z M39 13 C40 15 40 15 40 15 Z " fill="#F3F5F4" transform="translate(28,170)"/>
<path d="M0 0 C1.65 0 3.3 0 5 0 C5 5.94 5 11.88 5 18 C6.98 18 8.96 18 11 18 C10.98839844 16.86820313 10.97679687 15.73640625 10.96484375 14.5703125 C10.95546546 13.08854331 10.9463653 11.60677235 10.9375 10.125 C10.92912109 9.37863281 10.92074219 8.63226563 10.91210938 7.86328125 C10.88671875 2.2265625 10.88671875 2.2265625 12 0 C19.26 0 26.52 0 34 0 C34 7.26 34 14.52 34 22 C29 23 29 23 25 23 C24.67 23.99 24.34 24.98 24 26 C21.125 25.6875 21.125 25.6875 18 25 C17.34 24.01 16.68 23.02 16 22 C15.01 22.2475 15.01 22.2475 14 22.5 C4.52098872 24.07983521 4.52098872 24.07983521 1.27612305 21.77612305 C-0.37275474 19.48119558 -0.34662123 18.13984434 -0.29296875 15.33203125 C-0.28330078 14.43935547 -0.27363281 13.54667969 -0.26367188 12.62695312 C-0.23853516 11.69818359 -0.21339844 10.76941406 -0.1875 9.8125 C-0.17396484 8.87212891 -0.16042969 7.93175781 -0.14648438 6.96289062 C-0.11113096 4.64134962 -0.06178674 2.32096347 0 0 Z M16 4 C16 5.98 16 7.96 16 10 C16.33 10 16.66 10 17 10 C17 8.02 17 6.04 17 4 C16.67 4 16.34 4 16 4 Z " fill="#F8F9F9" transform="translate(151,170)"/>
<path d="M0 0 C0.9075 0.00257813 1.815 0.00515625 2.75 0.0078125 C4.11125 0.00394531 4.11125 0.00394531 5.5 0 C7.75 0.1328125 7.75 0.1328125 8.75 1.1328125 C9.08 0.8028125 9.41 0.4728125 9.75 0.1328125 C11.5625 0 11.5625 0 13.75 0.0078125 C14.471875 0.00523437 15.19375 0.00265625 15.9375 0 C17.75 0.1328125 17.75 0.1328125 18.75 1.1328125 C19.0276444 4.43720159 18.98174988 7.75563384 19 11.0703125 C19.020625 12.00294922 19.04125 12.93558594 19.0625 13.89648438 C19.06765625 14.78787109 19.0728125 15.67925781 19.078125 16.59765625 C19.09214355 17.82923462 19.09214355 17.82923462 19.10644531 19.08569336 C18.93000488 20.09901733 18.93000488 20.09901733 18.75 21.1328125 C15.52208445 23.2847562 14.46599191 23.33367693 10.75 23.1328125 C10.42 24.1228125 10.09 25.1128125 9.75 26.1328125 C3.875 25.2578125 3.875 25.2578125 2.75 24.1328125 C2.29540142 21.47818129 2.04756762 18.81092112 1.75 16.1328125 C1.42 18.4428125 1.09 20.7528125 0.75 23.1328125 C-0.57 23.1328125 -1.89 23.1328125 -3.25 23.1328125 C-3.27887512 19.48699563 -3.29675585 15.84120787 -3.3125 12.1953125 C-3.32087891 11.15439453 -3.32925781 10.11347656 -3.33789062 9.04101562 C-3.34272461 7.55698242 -3.34272461 7.55698242 -3.34765625 6.04296875 C-3.35289307 5.12652588 -3.35812988 4.21008301 -3.36352539 3.26586914 C-3.20590071 0.30422013 -2.96205799 0.1748437 0 0 Z M0.75 4.1328125 C0.75 6.1128125 0.75 8.0928125 0.75 10.1328125 C1.41 10.1328125 2.07 10.1328125 2.75 10.1328125 C2.75 8.1528125 2.75 6.1728125 2.75 4.1328125 C2.09 4.1328125 1.43 4.1328125 0.75 4.1328125 Z M12.75 4.1328125 C12.75 5.7828125 12.75 7.4328125 12.75 9.1328125 C13.08 9.1328125 13.41 9.1328125 13.75 9.1328125 C13.75 7.4828125 13.75 5.8328125 13.75 4.1328125 C13.42 4.1328125 13.09 4.1328125 12.75 4.1328125 Z M7.75 10.1328125 C7.75 11.1228125 7.75 12.1128125 7.75 13.1328125 C8.74 12.8028125 9.73 12.4728125 10.75 12.1328125 C10.09 12.1328125 9.43 12.1328125 8.75 12.1328125 C8.42 11.4728125 8.09 10.8128125 7.75 10.1328125 Z M12.75 13.1328125 C12.75 14.7828125 12.75 16.4328125 12.75 18.1328125 C13.08 18.1328125 13.41 18.1328125 13.75 18.1328125 C13.75 16.4828125 13.75 14.8328125 13.75 13.1328125 C13.42 13.1328125 13.09 13.1328125 12.75 13.1328125 Z M6.75 19.1328125 C6.75 19.7928125 6.75 20.4528125 6.75 21.1328125 C7.41 20.8028125 8.07 20.4728125 8.75 20.1328125 C8.09 19.8028125 7.43 19.4728125 6.75 19.1328125 Z " fill="#F9FAFA" transform="translate(131.25,169.8671875)"/>
<path d="M0 0 C0.88494141 -0.01224609 1.76988281 -0.02449219 2.68164062 -0.03710938 C3.52791016 -0.03904297 4.37417969 -0.04097656 5.24609375 -0.04296875 C6.02525146 -0.04707764 6.80440918 -0.05118652 7.60717773 -0.05541992 C9.5625 0.1875 9.5625 0.1875 11.5625 2.1875 C12.00610072 5.14602109 11.88662652 8.13698451 11.875 11.125 C11.89111328 11.94935547 11.90722656 12.77371094 11.92382812 13.62304688 C11.92447266 14.41646484 11.92511719 15.20988281 11.92578125 16.02734375 C11.92876221 16.75300537 11.93174316 17.47866699 11.93481445 18.22631836 C11.44870245 20.78693324 10.65136208 21.6572458 8.5625 23.1875 C5.62317135 23.45841929 2.93143917 23.56081824 0 23.5 C-0.78052734 23.50322266 -1.56105469 23.50644531 -2.36523438 23.50976562 C-8.17033019 23.45466981 -8.17033019 23.45466981 -10.4375 21.1875 C-10.68041992 19.14038086 -10.68041992 19.14038086 -10.66796875 16.65234375 C-10.66603516 15.76095703 -10.66410156 14.86957031 -10.66210938 13.95117188 C-10.64986328 13.01853516 -10.63761719 12.08589844 -10.625 11.125 C-10.62435547 10.18849609 -10.62371094 9.25199219 -10.62304688 8.28710938 C-10.56331769 -0.8780016 -8.69273866 0.00630365 0 0 Z M-5.4375 4.1875 C-5.4375 5.8375 -5.4375 7.4875 -5.4375 9.1875 C-3.7875 9.1875 -2.1375 9.1875 -0.4375 9.1875 C-0.4375 10.5075 -0.4375 11.8275 -0.4375 13.1875 C-2.0875 13.1875 -3.7375 13.1875 -5.4375 13.1875 C-5.4375 14.8375 -5.4375 16.4875 -5.4375 18.1875 C-3.4575 18.1875 -1.4775 18.1875 0.5625 18.1875 C0.5625 13.2375 0.5625 8.2875 0.5625 3.1875 C-1.46200921 3.1875 -3.46150526 3.78216775 -5.4375 4.1875 Z M5.5625 4.1875 C5.5625 8.8075 5.5625 13.4275 5.5625 18.1875 C5.8925 18.1875 6.2225 18.1875 6.5625 18.1875 C6.5625 13.5675 6.5625 8.9475 6.5625 4.1875 C6.2325 4.1875 5.9025 4.1875 5.5625 4.1875 Z " fill="#FAFBFB" transform="translate(109.4375,169.8125)"/>
<path d="M0 0 C1.16269409 0.26091431 1.16269409 0.26091431 2.34887695 0.52709961 C5.28524215 1.05088075 7.10785985 0.63443316 10 0 C12.10323534 -0.0659735 14.20835724 -0.08562245 16.3125 -0.0625 C18.189375 -0.041875 20.06625 -0.02125 22 0 C22 5.94 22 11.88 22 18 C21.67 18 21.34 18 21 18 C21 12.39 21 6.78 21 1 C20.34 1 19.68 1 19 1 C19 1.62648437 19 2.25296875 19 2.8984375 C19 9.59895833 19 16.29947917 19 23 C16.15321219 23 13.77480587 22.56919095 11 22 C10.34 22 9.68 22 9 22 C8.67 22.33 8.34 22.66 8 23 C5.0625 23.1875 5.0625 23.1875 2 23 C0 21 0 21 -0.22705078 18.84521484 C-0.21657715 17.97590332 -0.20610352 17.1065918 -0.1953125 16.2109375 C-0.18886719 15.26992187 -0.18242187 14.32890625 -0.17578125 13.359375 C-0.15902344 12.37453125 -0.14226563 11.3896875 -0.125 10.375 C-0.11597656 9.38242188 -0.10695313 8.38984375 -0.09765625 7.3671875 C-0.07404116 4.91121866 -0.04110799 2.45572832 0 0 Z " fill="#EEF1F0" transform="translate(28,170)"/>
<path d="M0 0 C1.98 0 3.96 0 6 0 C6.66 1.98 7.32 3.96 8 6 C8.99 4.02 9.98 2.04 11 0 C12.98 0 14.96 0 17 0 C17 7.26 17 14.52 17 22 C15.35 22.33 13.7 22.66 12 23 C11.67 22.34 11.34 21.68 11 21 C10.67 21.66 10.34 22.32 10 23 C9.278125 22.814375 8.55625 22.62875 7.8125 22.4375 C4.62543759 21.77633914 4.62543759 21.77633914 0 23 C0 15.41 0 7.82 0 0 Z " fill="#F7F9F8" transform="translate(81,170)"/>
<path d="M0 0 C1.98 0 3.96 0 6 0 C6.66 2.31 7.32 4.62 8 7 C8.66 4.69 9.32 2.38 10 0 C12.31 0 14.62 0 17 0 C17 7.26 17 14.52 17 22 C15.35 22.33 13.7 22.66 12 23 C11.67 21.68 11.34 20.36 11 19 C10.34 20.32 9.68 21.64 9 23 C8.01 22.67 7.02 22.34 6 22 C5.67 21.34 5.34 20.68 5 20 C4.67 20.99 4.34 21.98 4 23 C2.68 23 1.36 23 0 23 C0 15.41 0 7.82 0 0 Z " fill="#F2F4F3" transform="translate(10,170)"/>
<path d="M0 0 C2.475 0.495 2.475 0.495 5 1 C5.33 6.61 5.66 12.22 6 18 C6.33 12.39 6.66 6.78 7 1 C7.66 1 8.32 1 9 1 C9.06058594 2.13179687 9.12117188 3.26359375 9.18359375 4.4296875 C9.26799917 5.91147145 9.35264717 7.3932416 9.4375 8.875 C9.47681641 9.62136719 9.51613281 10.36773437 9.55664062 11.13671875 C9.71573624 15.19986864 9.71573624 15.19986864 11 19 C9.875 21 9.875 21 8 23 C4.9375 23.375 4.9375 23.375 2 23 C0 21 0 21 -0.22705078 18.84521484 C-0.21657715 17.97590332 -0.20610352 17.1065918 -0.1953125 16.2109375 C-0.18886719 15.26992187 -0.18242187 14.32890625 -0.17578125 13.359375 C-0.15902344 12.37453125 -0.14226563 11.3896875 -0.125 10.375 C-0.11597656 9.38242188 -0.10695313 8.38984375 -0.09765625 7.3671875 C-0.07404116 4.91121866 -0.04110799 2.45572832 0 0 Z " fill="#F2F4F3" transform="translate(28,170)"/>
<path d="M0 0 C0.66 0 1.32 0 2 0 C2 5.94 2 11.88 2 18 C-1 18 -1 18 -6 17 C-6 12.38 -6 7.76 -6 3 C-4.33333333 3 -2.66666667 3 -1 3 C-0.67 2.01 -0.34 1.02 0 0 Z " fill="#F2F3F3" transform="translate(119,172)"/>
<path d="M0 0 C1.98 0 3.96 0 6 0 C6 2.97 6 5.94 6 9 C5.01 8.67 4.02 8.34 3 8 C3.66 12.62 4.32 17.24 5 22 C3.35 22.33 1.7 22.66 0 23 C0 15.41 0 7.82 0 0 Z " fill="#FBFBFB" transform="translate(10,170)"/>
<path d="M0 0 C0.66 0 1.32 0 2 0 C2.07347656 1.77117187 2.07347656 1.77117187 2.1484375 3.578125 C2.22348879 5.13543937 2.29903561 6.69272991 2.375 8.25 C2.4059375 9.02730469 2.436875 9.80460938 2.46875 10.60546875 C2.72658242 16.07379907 2.72658242 16.07379907 5 21 C6.32 20.67 7.64 20.34 9 20 C9 22 9 22 7.8125 23.625 C6 25 6 25 3.4375 25.375 C2.633125 25.25125 1.82875 25.1275 1 25 C-1.36574234 21.4513865 -1.10865265 20.4235475 -0.625 16.3125 C-0.51414063 15.31863281 -0.40328125 14.32476562 -0.2890625 13.30078125 C-0.19367187 12.54152344 -0.09828125 11.78226563 0 11 C-0.66 10.67 -1.32 10.34 -2 10 C-1.67 9.67 -1.34 9.34 -1 9 C-0.76807135 7.48530552 -0.58784762 5.96245438 -0.4375 4.4375 C-0.35371094 3.61121094 -0.26992188 2.78492188 -0.18359375 1.93359375 C-0.12300781 1.29550781 -0.06242187 0.65742188 0 0 Z M4 15 C4.33 15 4.66 15 5 15 C5 16.65 5 18.3 5 20 C4.67 20 4.34 20 4 20 C4 18.35 4 16.7 4 15 Z " fill="#FCFDFC" transform="translate(47,171)"/>
<path d="M0 0 C0.66 0 1.32 0 2 0 C2.06058594 0.67546875 2.12117188 1.3509375 2.18359375 2.046875 C2.26738281 2.93890625 2.35117188 3.8309375 2.4375 4.75 C2.55931641 6.07257813 2.55931641 6.07257813 2.68359375 7.421875 C2.96238465 9.69350452 3.38790577 11.79851823 4 14 C3.01 14.33 2.02 14.66 1 15 C0.67 15.99 0.34 16.98 0 18 C-1.98 17.67 -3.96 17.34 -6 17 C-5.67 15.02 -5.34 13.04 -5 11 C-4.01 11.33 -3.02 11.66 -2 12 C-1.34 8.04 -0.68 4.08 0 0 Z " fill="#FBFCFC" transform="translate(64,178)"/>
<path d="M0 0 C1.32 0 2.64 0 4 0 C4.66 3.96 5.32 7.92 6 12 C6.33 12 6.66 12 7 12 C7 15.3 7 18.6 7 22 C6.34 22 5.68 22 5 22 C2.28513066 18.02389214 2.77559247 13.86098023 2.875 9.25 C2.88402344 8.45722656 2.89304688 7.66445312 2.90234375 6.84765625 C2.92582988 4.89830719 2.96169863 2.94911425 3 1 C2.34 1 1.68 1 1 1 C1 6.94 1 12.88 1 19 C0.67 19 0.34 19 0 19 C0 12.73 0 6.46 0 0 Z " fill="#E8EAE9" transform="translate(34,170)"/>
<path d="M0 0 C1.16063604 4.25566547 0.76173392 7.6835078 0 12 C-0.33 12 -0.66 12 -1 12 C-1 10.02 -1 8.04 -1 6 C-1.66 6 -2.32 6 -3 6 C-3.79265639 11.32212148 -4.42978066 16.6496441 -5 22 C-5.99 21.67 -6.98 21.34 -8 21 C-8.3406072 15.43674904 -7.20424396 12.05139241 -5 7 C-4.74730583 3.70714899 -4.74730583 3.70714899 -5 1 C-3 0 -3 0 0 0 Z " fill="#FCFDFD" transform="translate(78,171)"/>
<path d="M0 0 C1.32 0 2.64 0 4 0 C4 0.99 4 1.98 4 3 C3.34 3 2.68 3 2 3 C2 8.61 2 14.22 2 20 C1.34 19.67 0.68 19.34 0 19 C0 12.73 0 6.46 0 0 Z " fill="#FAFDFC" transform="translate(29,171)"/>
<path d="M0 0 C2.97 0.33 5.94 0.66 9 1 C8.67 3.31 8.34 5.62 8 8 C7.67 6.68 7.34 5.36 7 4 C5.35 4 3.7 4 2 4 C2 6.31 2 8.62 2 11 C1.67 11 1.34 11 1 11 C0.67 7.37 0.34 3.74 0 0 Z " fill="#FCFDFD" transform="translate(52,170)"/>
<path d="M0 0 C2.475 0.495 2.475 0.495 5 1 C5 2.65 5 4.3 5 6 C3.35 6.33 1.7 6.66 0 7 C0 4.69 0 2.38 0 0 Z " fill="#FAFBFD" transform="translate(81,186)"/>
<path d="M0 0 C1.4606285 2.64738916 2 3.89448334 2 7 C3.32 7 4.64 7 6 7 C5.67 7.99 5.34 8.98 5 10 C2.0625 9.625 2.0625 9.625 -1 9 C-1.33 8.34 -1.66 7.68 -2 7 C-1.34 7 -0.68 7 0 7 C0 4.69 0 2.38 0 0 Z " fill="#FCFDFD" transform="translate(170,186)"/>
<path d="M0 0 C0.99 0.33 1.98 0.66 3 1 C3 2.65 3 4.3 3 6 C2.34 6 1.68 6 1 6 C0.34 7.32 -0.32 8.64 -1 10 C-2.46726798 6.18510326 -1.43336419 3.70988378 0 0 Z " fill="#F3F4F4" transform="translate(92,182)"/>
<path d="M0 0 C0.66 0 1.32 0 2 0 C2.33 1.65 2.66 3.3 3 5 C2.34 5 1.68 5 1 5 C1 5.99 1 6.98 1 8 C1.99 7.67 2.98 7.34 4 7 C4 8.65 4 10.3 4 12 C3.67 11.01 3.34 10.02 3 9 C2.34 9 1.68 9 1 9 C0.67 9.66 0.34 10.32 0 11 C0 7.37 0 3.74 0 0 Z " fill="#EBEDEC" transform="translate(84,178)"/>
<path d="M0 0 C0.66 0 1.32 0 2 0 C2.33 3.3 2.66 6.6 3 10 C2.01 10.66 1.02 11.32 0 12 C0 8.04 0 4.08 0 0 Z " fill="#FCFEFD" transform="translate(41,171)"/>
<path d="M0 0 C0.66 0 1.32 0 2 0 C2.33 1.65 2.66 3.3 3 5 C2.34 5 1.68 5 1 5 C1.33 6.65 1.66 8.3 2 10 C1.01 10.495 1.01 10.495 0 11 C0 7.37 0 3.74 0 0 Z " fill="#E8EBE8" transform="translate(66,178)"/>
<path d="M0 0 C1.98 0.99 1.98 0.99 4 2 C3.34 2 2.68 2 2 2 C2 3.98 2 5.96 2 8 C1.34 8 0.68 8 0 8 C0 5.36 0 2.72 0 0 Z " fill="#F2F4F2" transform="translate(57,185)"/>
<path d="M0 0 C0.66 0 1.32 0 2 0 C2.33 2.31 2.66 4.62 3 7 C2.01 7.66 1.02 8.32 0 9 C0 6.03 0 3.06 0 0 Z " fill="#E4E6E5" transform="translate(13,178)"/>
<path d="M0 0 C2.76223278 2.76223278 2.57856291 5.20706617 3 9 C1.35 9 -0.3 9 -2 9 C-1.34 6.03 -0.68 3.06 0 0 Z " fill="#FBFEFE" transform="translate(77,184)"/>
</svg>
